#!OML:ASF H:\Punching\Project 1\Capture day 1\Session 1\female.ASF
:FULLY-SPECIFIED
:DEGREES
314
root -10.0895 16.1151 11.2966 15.3565 53.3171 2.17946
lowerback -4.88536 0.200384 5.01314
upperback -6.10091 0.254005 -0.259311
thorax -3.56469 -0.0366878 -3.07543
lowerneck -7.26499 11.2784 16.2352
upperneck 32.3357 22.2891 -19.8855
head 17.7204 10.0485 -7.28644
rclavicle -5.49888e-014 -1.51076e-014
rhumerus -41.0433 9.62801 -81.274
rradius 25.3078
rwrist 8.63377
rhand -17.015 -6.64887
rfingers 7.12502
rthumb 9.22084 -36.4273
lclavicle -5.49888e-014 -1.51076e-014
lhumerus -44.5985 -11.6277 92.7463
lradius 64.7956
lwrist -7.19844
lhand -5.24414 9.24648
lfingers 7.12502
lthumb 20.5588 38.1779
rfemur -18.3867 -2.50603 21.3385
rtibia 23.6269
rfoot -17.8415 -31.4175
rtoes 1.63834
lfemur -25.0141 10.8133 -16.2963
ltibia 36.9476
lfoot -14.902 23.7202
ltoes 10.3975
315
root -10.1024 16.1155 11.3277 15.4254 54.8764 2.24092
lowerback -4.86246 0.258094 4.92989
upperback -6.06734 0.334959 -0.280295
thorax -3.53422 0.00909649 -3.04911
lowerneck -7.01827 11.3036 16.4205
upperneck 32.2279 22.3518 -19.9011
head 17.6481 10.1285 -7.31042
rclavicle 2.55128e-014 -1.31198e-014
rhumerus -41.1454 9.92782 -81.552
rradius 25.4009
rwrist 8.37361
rhand -17.0499 -6.69901
rfingers 7.12502
rthumb 9.18718 -36.4789
lclavicle 2.55128e-014 -1.31198e-014
lhumerus -44.7226 -12.0133 92.9887
lradius 64.9291
lwrist -7.04552
lhand -5.18538 9.22156
lfingers 7.12502
lthumb 20.6153 38.1468
rfemur -18.2485 -3.01285 21.6245
rtibia 23.8259
rfoot -18.0001 -32.0465
rtoes 2.28779
lfemur -25.6842 11.3983 -16.7974
ltibia 36.858
lfoot -15.1529 24.5879
ltoes 10.8233
316
root -10.1132 16.1156 11.3579 15.5072 56.448 2.3183
lowerback -4.83661 0.309477 4.84821
upperback -6.04252 0.407878 -0.306076
thorax -3.51556 0.0502627 -3.02883
lowerneck -6.78517 11.3203 16.5911
upperneck 32.1488 22.4006 -19.8903
head 17.583 10.2014 -7.32437
rclavicle 1.68246e-013 2.5842e-014
rhumerus -41.2699 10.2629 -81.8633
rradius 25.5265
rwrist 7.96363
rhand -17.0954 -6.7844
rfingers 7.12502
rthumb 9.14326 -36.5662
lclavicle 1.68246e-013 2.5842e-014
lhumerus -44.8544 -12.3471 93.1886
lradius 64.9643
lwrist -6.90343
lhand -5.16022 9.24625
lfingers 7.12502
lthumb 20.6395 38.1689
rfemur -18.1194 -3.54384 21.9056
rtibia 24.0332
rfoot -18.1387 -32.6946
rtoes 2.61835
lfemur -26.3422 12.0057 -17.3463
ltibia 36.7354
lfoot -15.3245 25.4254
ltoes 11.208
317
root -10.1226 16.115 11.3871 15.5706 58.0216 2.3736
lowerback -4.81027 0.350412 4.76744
upperback -6.01815 0.467174 -0.317744
thorax -3.49905 0.0848023 -2.99464
lowerneck -6.58045 11.3332 16.75
upperneck 32.0924 22.4501 -19.8787
head 17.5366 10.2712 -7.33657
rclavicle -1.55425e-014 1.66979e-014
rhumerus -41.3874 10.6299 -82.1842
rradius 25.671
rwrist 7.46971
rhand -17.171 -6.88635
rfingers 7.12502
rthumb 9.07038 -36.6713
lclavicle -1.55425e-014 1.66979e-014
lhumerus -44.9715 -12.5891 93.339
lradius 64.8952
lwrist -6.79165
lhand -5.14637 9.33352
lfingers 7.12502
lthumb 20.6528 38.2547
rfemur -17.9963 -4.04352 22.2015
rtibia 24.2365
rfoot -18.2747 -33.4058
rtoes 2.63356
lfemur -26.9868 12.5943 -17.9094
ltibia 36.5896
lfoot -15.4529 26.2489
ltoes 11.5626
318
root -10.13 16.1142 11.4158 15.5914 59.6069 2.37944
lowerback -4.79124 0.386086 4.70633
upperback -5.99598 0.519148 -0.315236
thorax -3.48173 0.115237 -2.95688
lowerneck -6.40434 11.3381 16.8995
upperneck 32.0673 22.494 -19.8619
head 17.511 10.3359 -7.34739
rclavicle 1.29521e-014 -2.70347e-014
rhumerus -41.5012 10.9497 -82.4764
rradius 25.8227
rwrist 6.99925
rhand -17.2559 -6.97694
rfingers 7.12502
rthumb 8.98845 -36.7655
lclavicle 1.29521e-014 -2.70347e-014
lhumerus -45.0821 -12.7602 93.4416
lradius 64.7273
lwrist -6.70885
lhand -5.14301 9.45031
lfingers 7.12502
lthumb 20.656 38.3712
rfemur -17.8668 -4.51854 22.5252
rtibia 24.4244
rfoot -18.41 -34.1749
rtoes 2.37415
lfemur -27.603 13.126 -18.4506
ltibia 36.4248
lfoot -15.6677 27.0051
ltoes 12.1271
